<svg width="118" height="30" viewBox="0 0 118 30" fill="none" xmlns="http://www.w3.org/2000/svg">
<path d="M30.2033 21.5443C30.2033 27.195 25.0004 30 18.7391 30C15.4048 30 13.5362 29.6743 10.9348 29.6743C8.57759 29.6743 6.62753 30 6.30184 30C5.97616 30 5.81331 29.7964 5.73189 29.43C5.48762 28.3308 5.20265 26.3401 5.20265 25.8923C5.20265 25.4851 5.44691 25.2816 5.81331 25.2002C6.34256 25.078 7.60053 24.8745 9.51395 24.8338C10.0025 23.8567 10.0839 22.4359 10.0839 20.2008C10.0839 16.2152 9.96177 12.8851 9.96177 9.79509C9.96177 8.98087 10.3282 8.61447 11.1831 8.61447H14.6802C15.3316 8.61447 15.7387 9.02158 15.7387 9.75438V19.8752C15.7387 22.3545 15.5758 23.9422 14.843 25.0373C16.3453 25.078 17.7702 25.1595 18.7472 25.1595C21.9593 25.1595 23.9094 23.7386 23.9094 21.3774C23.9094 19.0161 22.6066 17.921 20.3309 17.921H18.6251C18.0551 17.921 17.8109 17.7175 17.8109 17.1475V13.1619C17.8109 12.6327 18.0144 12.3477 18.5437 12.3477H19.3172C20.4978 12.3477 22.0408 11.1671 22.0408 9.2577C22.0408 6.61555 18.9101 5.10924 15.2094 5.10924C9.11091 5.10924 5.89881 8.85059 5.89881 11.8999C5.89881 13.7278 7.03872 14.9084 7.84887 15.4376C8.05242 15.5598 8.17455 15.6412 8.17455 15.8448C8.17455 16.4147 6.83109 18.5276 6.18378 19.3418C5.98023 19.6268 5.81738 19.7489 5.57312 19.7489C4.55534 19.7489 0.451662 17.3511 0.451662 12.0261C0.447591 4.59221 6.99393 0 15.4496 0C21.141 0 28.009 2.52002 28.009 8.45569C28.009 12.0749 25.1633 14.0657 23.4982 14.5949V14.7578C26.466 15.002 30.2074 16.9928 30.2074 21.5484L30.2033 21.5443Z" fill="white"/>
<path d="M30.7073 19.8389C30.7073 14.0661 34.9331 9.9624 41.2352 9.9624C47.5372 9.9624 51.1931 14.2289 51.1931 19.5173C51.1931 24.3538 47.6146 29.3938 40.5838 29.3938C34.526 29.3938 30.7073 25.2087 30.7073 19.8389ZM44.9765 19.3097C44.9765 16.7489 43.7959 14.636 41.113 14.636C38.4302 14.636 36.8872 17.3189 36.8872 19.7982C36.8872 22.2775 38.2714 24.7161 40.9135 24.7161C43.5557 24.7161 44.9806 22.1147 44.9806 19.3097H44.9765Z" fill="white"/>
<path d="M70.8323 20.9333C70.8323 21.0961 70.7509 21.3811 70.7102 21.5032C69.6924 24.9596 66.6432 29.389 60.6709 29.389C55.9972 29.389 52.8258 26.4211 52.8258 22.1139V15.2011H51.9302C51.2381 15.2011 50.9531 14.9569 50.9531 14.3055V11.6633C50.9531 11.1748 51.1974 10.8084 51.7673 10.8084H52.8258V6.37905C52.8258 5.60554 53.2329 5.15771 53.9657 5.15771H57.5443C58.3178 5.15771 58.6842 5.60554 58.6842 6.37905V10.8898C59.9462 10.8491 61.367 10.8084 62.2627 10.8084C62.6698 10.8084 62.9955 11.0527 62.9955 11.5412V14.4276C62.9955 14.9976 62.7105 15.2011 62.2627 15.2011C61.4077 15.2011 59.9869 15.1604 58.6842 15.1604V19.8341C58.6842 22.7205 59.4984 24.2634 61.937 24.2634C64.8234 24.2634 66.6106 21.4584 67.3027 19.5084C67.3841 19.3048 67.5063 19.2234 67.6691 19.2234C68.0355 19.2234 70.8405 20.4447 70.8405 20.9292L70.8323 20.9333Z" fill="white"/>
<path d="M85.1832 20.9333C85.1832 21.0961 85.1018 21.3811 85.061 21.5032C84.0433 24.9596 80.994 29.389 75.0217 29.389C70.3481 29.389 67.1767 26.4211 67.1767 22.1139V15.2011H66.281C65.5889 15.2011 65.304 14.9569 65.304 14.3055V11.6633C65.304 11.1748 65.5482 10.8084 66.1182 10.8084H67.1767V6.37905C67.1767 5.60554 67.5838 5.15771 68.3125 5.15771H71.891C72.6645 5.15771 73.0309 5.60554 73.0309 6.37905V10.8898C74.2889 10.8491 75.7138 10.8084 76.6094 10.8084C77.0165 10.8084 77.3422 11.0527 77.3422 11.5412V14.4276C77.3422 14.9976 77.0572 15.2011 76.6094 15.2011C75.7545 15.2011 74.3337 15.1604 73.0309 15.1604V19.8341C73.0309 22.7205 73.8451 24.2634 76.2837 24.2634C79.1702 24.2634 80.9574 21.4584 81.6495 19.5084C81.7309 19.3048 81.853 19.2234 82.0159 19.2234C82.3823 19.2234 85.1872 20.4447 85.1872 20.9292L85.1832 20.9333Z" fill="white"/>
<path d="M103.474 20.9744C103.474 21.1372 103.393 21.3815 103.352 21.5036C101.927 26.1772 97.5795 29.3893 91.6438 29.3893C85.1382 29.3893 81.2788 24.96 81.2788 18.495V13.4957C81.2788 5.85425 84.4909 0 90.7116 0C94.6565 0 97.4615 2.52002 97.4615 6.30208C97.4615 11.505 92.4214 15.4091 86.8929 17.2371V18.3363C86.8929 22.1183 89.0058 24.6791 92.625 24.6791C96.7694 24.6791 99.0899 21.7519 99.9408 19.5169C100.022 19.3133 100.144 19.2319 100.307 19.2319C100.674 19.2319 103.479 20.494 103.479 20.9784L103.474 20.9744ZM86.9295 12.3558C89.1645 11.2159 92.2952 9.14371 92.2952 6.46085C92.2952 5.44307 91.7253 4.71434 90.7116 4.71434C88.2323 4.71434 87.0923 8.82209 86.9295 12.3558Z" fill="white"/>
<path d="M99.0044 19.6354C99.0044 14.5953 102.542 9.9624 107.949 9.9624C111.731 9.9624 114.495 12.4824 114.495 15.9388C114.495 20.2867 111.364 22.4851 107.179 22.4851C106.609 22.4851 105.718 22.4444 105.351 22.4037C105.718 23.5436 107.098 24.7202 109.5 24.7202C111.902 24.7202 113.648 23.0958 114.377 22.2002C114.54 21.9966 114.621 21.9152 114.784 21.9152C115.15 21.9152 117.548 23.906 117.548 24.4759C117.548 24.6388 117.508 24.8016 117.426 24.9237C116.001 27.2402 113.481 29.3938 108.97 29.3938C103.523 29.3938 99.0125 25.4896 99.0125 19.6394L99.0044 19.6354ZM109.736 15.8533C109.736 14.8355 109.044 14.1475 107.908 14.1475C105.714 14.1475 104.411 16.3011 104.411 18.3326V18.4547C104.655 18.4954 104.94 18.5362 105.551 18.5362C107.501 18.5362 109.74 17.8848 109.74 15.8533H109.736Z" fill="white"/>
</svg>
