<svg width="547" height="140" viewBox="0 0 547 140" fill="none" xmlns="http://www.w3.org/2000/svg">
<path d="M138.841 100.54C138.841 126.91 114.561 140 85.3413 140C69.7815 140 61.0612 138.48 48.9212 138.48C37.921 138.48 28.8207 140 27.3009 140C25.781 140 25.021 139.05 24.6411 137.34C23.5012 132.211 22.1713 122.92 22.1713 120.83C22.1713 118.931 23.3112 117.981 25.021 117.601C27.4908 117.031 33.3614 116.081 42.2907 115.891C44.5705 111.331 44.9505 104.701 44.9505 94.2706C44.9505 75.6711 44.3805 60.1303 44.3805 45.7104C44.3805 41.9107 46.0904 40.2008 50.0801 40.2008H66.3998C69.4395 40.2008 71.3394 42.1007 71.3394 45.5204V92.7507C71.3394 104.321 70.5795 111.73 67.1597 116.841C74.1702 117.031 80.8197 117.411 85.3793 117.411C100.369 117.411 109.469 110.78 109.469 99.7612C109.469 88.742 103.39 83.6314 92.7697 83.6314H84.8093C82.1496 83.6314 81.0096 82.6815 81.0096 80.0217V61.4222C81.0096 58.9524 81.9596 57.6225 84.4294 57.6225H88.0391C93.5487 57.6225 100.749 52.1129 100.749 43.2026C100.749 30.8726 86.1392 23.8431 68.8696 23.8431C40.4098 23.8431 25.42 41.3028 25.42 55.5326C25.42 64.063 30.7396 69.5725 34.5203 72.0423C35.4702 72.6123 36.0402 72.9923 36.0402 73.9422C36.0402 76.602 29.7707 86.4622 26.7499 90.2619C25.8 91.5918 25.04 92.1618 23.9001 92.1618C19.1505 92.1618 8.85639e-06 80.9716 8.85639e-06 56.1216C-0.0189896 21.4303 30.5306 0 69.9905 0C96.5504 0 128.601 11.7601 128.601 39.4599C128.601 56.3496 115.321 65.6398 107.551 68.1096V68.8696C121.4 70.0095 138.86 79.2998 138.86 100.559L138.841 100.54Z" fill="#615EFA"/>
<path d="M141.192 92.5801C141.192 65.6402 160.913 46.4897 190.322 46.4897C219.732 46.4897 236.793 66.4002 236.793 91.0792C236.793 113.649 220.093 137.17 187.283 137.17C159.013 137.17 141.192 117.639 141.192 92.5801ZM207.782 90.1103C207.782 78.1603 202.272 68.3 189.752 68.3C177.232 68.3 170.032 80.82 170.032 92.3901C170.032 103.96 176.491 115.34 188.821 115.34C201.151 115.34 207.801 103.2 207.801 90.1103H207.782Z" fill="#2E2E37"/>
<path d="M328.444 97.6905C328.444 98.4504 328.064 99.7803 327.874 100.35C323.124 116.48 308.894 137.15 281.023 137.15C259.213 137.15 244.413 123.3 244.413 103.2V70.9406H240.234C237.004 70.9406 235.674 69.8007 235.674 66.7609V54.4309C235.674 52.1511 236.814 50.4412 239.474 50.4412H244.413V29.7708C244.413 26.1611 246.313 24.0713 249.733 24.0713H266.433C270.042 24.0713 271.752 26.1611 271.752 29.7708V50.8212C277.642 50.6312 284.272 50.4412 288.452 50.4412C290.352 50.4412 291.872 51.5811 291.872 53.8609V67.3309C291.872 69.9907 290.542 70.9406 288.452 70.9406C284.462 70.9406 277.832 70.7506 271.752 70.7506V92.5609C271.752 106.031 275.552 113.231 286.932 113.231C300.402 113.231 308.742 100.141 311.972 91.041C312.352 90.0911 312.922 89.7111 313.682 89.7111C315.392 89.7111 328.482 95.4107 328.482 97.6715L328.444 97.6905Z" fill="#2E2E37"/>
<path d="M395.413 97.6905C395.413 98.4504 395.033 99.7803 394.843 100.35C390.094 116.48 375.864 137.15 347.993 137.15C326.183 137.15 311.383 123.3 311.383 103.2V70.9406H307.203C303.973 70.9406 302.644 69.8007 302.644 66.7609V54.4309C302.644 52.1511 303.783 50.4412 306.443 50.4412H311.383V29.7708C311.383 26.1611 313.283 24.0713 316.683 24.0713H333.383C336.993 24.0713 338.703 26.1611 338.703 29.7708V50.8212C344.573 50.6312 351.223 50.4412 355.402 50.4412C357.302 50.4412 358.822 51.5811 358.822 53.8609V67.3309C358.822 69.9907 357.492 70.9406 355.402 70.9406C351.413 70.9406 344.782 70.7506 338.703 70.7506V92.5609C338.703 106.031 342.502 113.231 353.883 113.231C367.352 113.231 375.693 100.141 378.923 91.041C379.303 90.0911 379.872 89.7111 380.632 89.7111C382.342 89.7111 395.432 95.4107 395.432 97.6715L395.413 97.6905Z" fill="#2E2E37"/>
<path d="M480.774 97.8803C480.774 98.6402 480.394 99.7802 480.204 100.35C473.554 122.16 453.264 137.15 425.564 137.15C395.204 137.15 377.194 116.48 377.194 86.3102V62.98C377.194 27.3199 392.184 0 421.213 0C439.623 0 452.713 11.7601 452.713 29.4097C452.713 53.6898 429.193 71.9093 403.393 80.4397V85.5693C403.393 103.219 413.253 115.169 430.143 115.169C449.483 115.169 460.312 101.509 464.283 91.0788C464.663 90.1289 465.233 89.7489 465.993 89.7489C467.703 89.7489 480.793 95.6385 480.793 97.8993L480.774 97.8803ZM403.564 57.6605C413.994 52.3409 428.604 42.6706 428.604 30.1506C428.604 25.401 425.944 22.0003 421.213 22.0003C409.643 22.0003 404.324 41.1698 403.564 57.6605Z" fill="#2E2E37"/>
<path d="M459.913 91.6302C459.913 68.11 476.423 46.4897 501.653 46.4897C519.302 46.4897 532.202 58.2498 532.202 74.3796C532.202 94.67 517.592 104.929 498.062 104.929C495.402 104.929 491.241 104.739 489.532 104.549C491.241 109.869 497.682 115.359 508.891 115.359C520.1 115.359 528.25 107.779 531.651 103.599C532.411 102.649 532.791 102.269 533.551 102.269C535.261 102.269 546.451 111.56 546.451 114.219C546.451 114.979 546.261 115.739 545.881 116.309C539.232 127.119 527.472 137.17 506.421 137.17C481.001 137.17 459.951 118.95 459.951 91.6492L459.913 91.6302ZM509.993 73.9806C509.993 69.231 506.763 66.0202 501.463 66.0202C491.222 66.0202 485.143 76.0704 485.143 85.5507V86.1206C486.283 86.3106 487.613 86.5006 490.462 86.5006C499.563 86.5006 510.012 83.4608 510.012 73.9806H509.993Z" fill="#2E2E37"/>
</svg>
