<svg width="32" height="32" viewBox="0 0 32 32" fill="none" xmlns="http://www.w3.org/2000/svg">
<g id="icon_heart">
<mask id="mask0_4462_5466" style="mask-type:luminance" maskUnits="userSpaceOnUse" x="0" y="0" width="32" height="32">
<rect id="Mask" width="32" height="32" fill="white"/>
</mask>
<g mask="url(#mask0_4462_5466)">
<path id="Vector" fill-rule="evenodd" clip-rule="evenodd" d="M17.872 26.9515C20.5237 25.2012 26.2973 21.0174 28.7848 16.3358C32.0634 10.1598 28.2131 4 23.1228 4C20.2216 4 18.4763 5.51581 17.5109 6.81847C17.395 6.97802 17.2429 7.10786 17.0672 7.19739C16.8914 7.28692 16.697 7.33359 16.4997 7.33359C16.3025 7.33359 16.1081 7.28692 15.9323 7.19739C15.7566 7.10786 15.6045 6.97802 15.4886 6.81847C14.5232 5.51581 12.7779 4 9.8767 4C4.7864 4 0.936072 10.1598 4.21593 16.3358C6.70091 21.0174 12.477 25.2012 15.1262 26.9515C15.9612 27.5032 17.0382 27.5032 17.872 26.9515Z" fill="#BCBCBC"/>
</g>
</g>
</svg>
