<svg width="24" height="24" viewBox="0 0 24 24" fill="none" xmlns="http://www.w3.org/2000/svg">
<mask id="mask0_112_857" style="mask-type:luminance" maskUnits="userSpaceOnUse" x="0" y="0" width="24" height="24">
<rect width="24" height="24" fill="white"/>
</mask>
<g mask="url(#mask0_112_857)">
<path fill-rule="evenodd" clip-rule="evenodd" d="M4.28832 7.67834C4.54132 7.42645 4.88381 7.28503 5.24082 7.28503C5.59784 7.28503 5.94032 7.42645 6.19332 7.67834L11.9983 13.4833L17.7883 7.67834C18.0413 7.42645 18.3838 7.28503 18.7408 7.28503C19.0978 7.28503 19.4403 7.42645 19.6933 7.67834C19.9452 7.93134 20.0866 8.27383 20.0866 8.63084C20.0866 8.98786 19.9452 9.33034 19.6933 9.58334L12.9433 16.3333C12.6903 16.5852 12.3478 16.7267 11.9908 16.7267C11.6338 16.7267 11.2913 16.5852 11.0383 16.3333L4.28832 9.58334C4.03332 9.32834 3.89832 8.98334 3.89832 8.63834C3.89832 8.29334 4.03332 7.94834 4.28832 7.67834Z" fill="#9E9E9E"/>
</g>
</svg>
