<svg width="12" height="12" viewBox="0 0 12 12" fill="none" xmlns="http://www.w3.org/2000/svg">
<path fill-rule="evenodd" clip-rule="evenodd" d="M10.9773 2.23266C11.0517 2.15838 11.1106 2.07018 11.1509 1.97311C11.1911 1.87603 11.2119 1.77198 11.2119 1.6669C11.2119 1.56181 11.1913 1.45775 11.1511 1.36066C11.1109 1.26356 11.052 1.17533 10.9777 1.101C10.9034 1.02667 10.8152 0.9677 10.7181 0.927458C10.6211 0.887215 10.517 0.866486 10.4119 0.866455C10.3068 0.866424 10.2028 0.887091 10.1057 0.927277C10.0086 0.967463 9.92034 1.02638 9.84601 1.10066L6.07868 4.86866L2.31068 1.10066C2.15892 0.958915 1.95802 0.881675 1.75039 0.885246C1.54275 0.888817 1.34463 0.97292 1.19783 1.1198C1.05104 1.26669 0.967049 1.46486 0.963601 1.6725C0.960152 1.88013 1.03751 2.08099 1.17935 2.23266L4.94735 6L1.17935 9.76733C1.06799 9.87946 0.992269 10.022 0.961715 10.1771C0.93116 10.3321 0.947134 10.4927 1.00763 10.6387C1.06812 10.7847 1.17043 10.9096 1.3017 10.9976C1.43296 11.0856 1.58732 11.1328 1.74535 11.1333C1.95002 11.1333 2.15468 11.0553 2.31068 10.8993L6.07868 7.13133L9.84601 10.8993C9.92021 10.9738 10.0084 11.0328 10.1054 11.0731C10.2025 11.1134 10.3066 11.1342 10.4117 11.1342C10.5168 11.1342 10.6209 11.1134 10.7179 11.0731C10.815 11.0328 10.9032 10.9738 10.9773 10.8993C11.0517 10.825 11.1107 10.7368 11.151 10.6397C11.1913 10.5426 11.212 10.4385 11.212 10.3333C11.212 10.2282 11.1913 10.1241 11.151 10.027C11.1107 9.92986 11.0517 9.84163 10.9773 9.76733L7.21002 6L10.9773 2.23266Z" fill="#9E9E9E"/>
</svg>
