<svg width="24" height="24" viewBox="0 0 24 24" fill="none" xmlns="http://www.w3.org/2000/svg">
<mask id="mask0_112_858" style="mask-type:luminance" maskUnits="userSpaceOnUse" x="0" y="0" width="24" height="24">
<rect width="24" height="24" fill="white"/>
</mask>
<g mask="url(#mask0_112_858)">
<path fill-rule="evenodd" clip-rule="evenodd" d="M19.6966 16.3333C19.4436 16.5852 19.1011 16.7267 18.7441 16.7267C18.3871 16.7267 18.0446 16.5852 17.7916 16.3333L11.9866 10.5283L6.19663 16.3333C5.94363 16.5852 5.60115 16.7267 5.24413 16.7267C4.88711 16.7267 4.54463 16.5852 4.29163 16.3333C4.03974 16.0803 3.89832 15.7379 3.89832 15.3808C3.89832 15.0238 4.03974 14.6813 4.29163 14.4283L11.0416 7.67834C11.2946 7.42644 11.6371 7.28502 11.9941 7.28502C12.3511 7.28502 12.6936 7.42644 12.9466 7.67834L19.6966 14.4283C19.9516 14.6833 20.0866 15.0283 20.0866 15.3733C20.0866 15.7183 19.9516 16.0633 19.6966 16.3333Z" fill="#9E9E9E"/>
</g>
</svg>
