<svg width="32" height="32" viewBox="0 0 32 32" fill="none" xmlns="http://www.w3.org/2000/svg">
<mask id="mask0_1182_3575" style="mask-type:luminance" maskUnits="userSpaceOnUse" x="0" y="0" width="32" height="32">
<rect width="32" height="32" fill="white"/>
</mask>
<g mask="url(#mask0_1182_3575)">
<path fill-rule="evenodd" clip-rule="evenodd" d="M22.0194 11.3564C21.6915 12.1482 21.2108 12.8678 20.6048 13.4739C19.9989 14.08 19.2794 14.5609 18.4876 14.8889C17.6958 15.217 16.8471 15.3859 15.99 15.386C14.259 15.3862 12.5989 14.6987 11.3747 13.4749C10.1506 12.251 9.46284 10.591 9.46266 8.86C9.46257 8.0029 9.6313 7.15419 9.95922 6.3623C10.2871 5.57041 10.7678 4.85087 11.3738 4.24475C12.5977 3.02064 14.2577 2.33284 15.9887 2.33266C17.7196 2.33249 19.3798 3.01995 20.6039 4.24381C21.828 5.46767 22.5158 7.12769 22.516 8.85866C22.5161 9.71576 22.3474 10.5645 22.0194 11.3564ZM2.93466 26.1467C2.93466 28.928 10.7173 29.6693 15.9893 29.6693C21.2613 29.6693 29.044 28.928 29.044 26.1467C29.044 23.364 25.388 17.3827 15.9893 17.3827C6.59066 17.3827 2.93466 23.364 2.93466 26.1467Z" fill="#9E9E9E"/>
</g>
</svg>
