<svg width="125" height="144" viewBox="0 0 125 144" fill="none" xmlns="http://www.w3.org/2000/svg">
<mask id="mask0_1942_6952" style="mask-type:alpha" maskUnits="userSpaceOnUse" x="20" y="24" width="85" height="72">
<path fill-rule="evenodd" clip-rule="evenodd" d="M36.2754 24C27.2867 24 20 31.2868 20 40.2754V67.96C20 76.9486 27.2868 84.2354 36.2754 84.2354H52.5555C52.7667 84.2354 52.9659 84.3338 53.0942 84.5016L60.6987 94.4474C61.513 95.5124 63.1168 95.5124 63.931 94.4474L71.5356 84.5016C71.6639 84.3338 71.863 84.2354 72.0743 84.2354H87.9246C96.9133 84.2354 104.2 76.9486 104.2 67.96V40.2754C104.2 31.2867 96.9132 24 87.9246 24H36.2754Z" fill="white"/>
</mask>
<g mask="url(#mask0_1942_6952)">
<rect x="20" y="24" width="84.2" height="71.2462" fill="#EEEEFC"/>
<g filter="url(#filter0_d_1942_6952)">
<path d="M62.1001 49.2598L137.88 103.018H-13.6799L62.1001 49.2598Z" fill="#F4F4FF"/>
</g>
<g filter="url(#filter1_d_1942_6952)">
<path d="M55.6898 60.4716C59.3568 63.6914 64.8432 63.6914 68.5102 60.4716L115.211 19.4663H8.98926L55.6898 60.4716Z" fill="white"/>
</g>
</g>
<mask id="mask1_1942_6952" style="mask-type:luminance" maskUnits="userSpaceOnUse" x="46" y="40" width="32" height="32">
<rect x="46.2227" y="40.4209" width="31.2375" height="31.2375" fill="white"/>
</mask>
<g mask="url(#mask1_1942_6952)">
<path fill-rule="evenodd" clip-rule="evenodd" d="M63.2656 68.4402C66.0184 66.6232 72.0121 62.2799 74.5944 57.4198C77.9979 51.0083 74.0008 44.6138 68.7165 44.6138C65.7047 44.6138 63.8929 46.1874 62.8907 47.5397C62.7703 47.7053 62.6125 47.8401 62.43 47.933C62.2476 48.026 62.0457 48.0744 61.841 48.0744C61.6362 48.0744 61.4344 48.026 61.252 47.933C61.0695 47.8401 60.9117 47.7053 60.7913 47.5397C59.7891 46.1874 57.9773 44.6138 54.9655 44.6138C49.6812 44.6138 45.6841 51.0083 49.0889 57.4198C51.6686 62.2799 57.6649 66.6232 60.4151 68.4402C61.282 69.0128 62.4 69.0128 63.2656 68.4402Z" fill="#615EFA"/>
</g>
<path d="M31.7351 134.981C31.7351 141.008 26.1853 144 19.5066 144C15.95 144 13.9568 143.653 11.182 143.653C8.66765 143.653 6.58759 144 6.24019 144C5.89279 144 5.71909 143.783 5.63224 143.392C5.37169 142.22 5.06771 140.096 5.06771 139.618C5.06771 139.184 5.32826 138.967 5.71909 138.88C6.28361 138.75 7.62545 138.533 9.66643 138.489C10.1875 137.447 10.2744 135.932 10.2744 133.548C10.2744 129.296 10.1441 125.744 10.1441 122.448C10.1441 121.58 10.5349 121.189 11.4469 121.189H15.1771C15.8719 121.189 16.3061 121.623 16.3061 122.405V133.2C16.3061 135.845 16.1324 137.538 15.3508 138.706C16.9532 138.75 18.473 138.837 19.5152 138.837C22.9415 138.837 25.0215 137.321 25.0215 134.803C25.0215 132.284 23.6319 131.116 21.2045 131.116H19.385C18.777 131.116 18.5165 130.899 18.5165 130.291V126.039C18.5165 125.475 18.7336 125.171 19.2981 125.171H20.1232C21.3825 125.171 23.0283 123.912 23.0283 121.875C23.0283 119.057 19.6889 117.45 15.7416 117.45C9.23652 117.45 5.81028 121.441 5.81028 124.693C5.81028 126.643 7.02618 127.902 7.89034 128.467C8.10747 128.597 8.23774 128.684 8.23774 128.901C8.23774 129.509 6.80472 131.763 6.11426 132.631C5.89713 132.935 5.72343 133.066 5.46288 133.066C4.37725 133.066 2.02431e-06 130.508 2.02431e-06 124.828C-0.00434049 116.898 6.97842 112 15.9978 112C22.0686 112 29.3945 114.688 29.3945 121.019C29.3945 124.88 26.359 127.003 24.583 127.568V127.742C27.7486 128.002 31.7394 130.126 31.7394 134.985L31.7351 134.981Z" fill="white"/>
<path d="M32.2722 133.161C32.2722 127.004 36.7797 122.626 43.5019 122.626C50.2242 122.626 54.1237 127.177 54.1237 132.818C54.1237 137.977 50.3067 143.353 42.8071 143.353C36.3455 143.353 32.2722 138.889 32.2722 133.161ZM47.4927 132.597C47.4927 129.865 46.2334 127.612 43.3717 127.612C40.51 127.612 38.8641 130.473 38.8641 133.118C38.8641 135.763 40.3406 138.364 43.1589 138.364C45.9772 138.364 47.4971 135.589 47.4971 132.597H47.4927Z" fill="white"/>
<path d="M75.0729 134.33C75.0729 134.503 74.986 134.807 74.9426 134.938C73.857 138.624 70.6044 143.349 64.234 143.349C59.2488 143.349 55.866 140.183 55.866 135.589V128.215H54.9106C54.1724 128.215 53.8684 127.955 53.8684 127.26V124.442C53.8684 123.921 54.129 123.53 54.7369 123.53H55.866V118.805C55.866 117.98 56.3002 117.502 57.0819 117.502H60.8989C61.724 117.502 62.1148 117.98 62.1148 118.805V123.617C63.461 123.573 64.9766 123.53 65.9319 123.53C66.3662 123.53 66.7136 123.79 66.7136 124.312V127.39C66.7136 127.998 66.4096 128.215 65.9319 128.215C65.02 128.215 63.5044 128.172 62.1148 128.172V133.157C62.1148 136.236 62.9833 137.882 65.5845 137.882C68.6633 137.882 70.5697 134.89 71.3079 132.81C71.3948 132.593 71.5251 132.506 71.6988 132.506C72.0896 132.506 75.0816 133.809 75.0816 134.325L75.0729 134.33Z" fill="white"/>
<path d="M90.3803 134.33C90.3803 134.503 90.2934 134.807 90.25 134.938C89.1644 138.624 85.9118 143.349 79.5414 143.349C74.5561 143.349 71.1733 140.183 71.1733 135.589V128.215H70.218C69.4798 128.215 69.1758 127.955 69.1758 127.26V124.442C69.1758 123.921 69.4363 123.53 70.0443 123.53H71.1733V118.805C71.1733 117.98 71.6076 117.502 72.3849 117.502H76.202C77.027 117.502 77.4179 117.98 77.4179 118.805V123.617C78.7597 123.573 80.2796 123.53 81.2349 123.53C81.6692 123.53 82.0166 123.79 82.0166 124.312V127.39C82.0166 127.998 81.7126 128.215 81.2349 128.215C80.323 128.215 78.8075 128.172 77.4179 128.172V133.157C77.4179 136.236 78.2864 137.882 80.8875 137.882C83.9664 137.882 85.8727 134.89 86.611 132.81C86.6978 132.593 86.8281 132.506 87.0018 132.506C87.3926 132.506 90.3846 133.809 90.3846 134.325L90.3803 134.33Z" fill="white"/>
<path d="M109.891 134.373C109.891 134.546 109.804 134.807 109.761 134.937C108.241 139.922 103.603 143.349 97.2716 143.349C90.3323 143.349 86.2156 138.624 86.2156 131.728V126.395C86.2156 118.245 89.6418 112 96.2772 112C100.485 112 103.477 114.688 103.477 118.722C103.477 124.272 98.101 128.436 92.2039 130.386V131.559C92.2039 135.593 94.4577 138.324 98.3182 138.324C102.739 138.324 105.214 135.202 106.122 132.818C106.208 132.601 106.339 132.514 106.512 132.514C106.903 132.514 109.895 133.86 109.895 134.377L109.891 134.373ZM92.243 125.18C94.627 123.964 97.9664 121.753 97.9664 118.892C97.9664 117.806 97.3585 117.029 96.2772 117.029C93.6326 117.029 92.4167 121.41 92.243 125.18Z" fill="white"/>
<path d="M105.123 132.944C105.123 127.568 108.897 122.626 114.664 122.626C118.698 122.626 121.646 125.314 121.646 129.001C121.646 133.639 118.307 135.984 113.843 135.984C113.235 135.984 112.284 135.941 111.893 135.897C112.284 137.113 113.756 138.368 116.318 138.368C118.88 138.368 120.743 136.635 121.52 135.68C121.694 135.463 121.781 135.376 121.955 135.376C122.345 135.376 124.903 137.5 124.903 138.108C124.903 138.281 124.86 138.455 124.773 138.585C123.253 141.056 120.565 143.353 115.754 143.353C109.943 143.353 105.132 139.189 105.132 132.949L105.123 132.944ZM116.57 128.91C116.57 127.824 115.832 127.091 114.62 127.091C112.28 127.091 110.89 129.388 110.89 131.555V131.685C111.15 131.728 111.454 131.772 112.106 131.772C114.186 131.772 116.574 131.077 116.574 128.91H116.57Z" fill="white"/>
<defs>
<filter id="filter0_d_1942_6952" x="-39.5876" y="23.3521" width="203.375" height="105.574" filterUnits="userSpaceOnUse" color-interpolation-filters="sRGB">
<feFlood flood-opacity="0" result="BackgroundImageFix"/>
<feColorMatrix in="SourceAlpha" type="matrix" values="0 0 0 0 0 0 0 0 0 0 0 0 0 0 0 0 0 0 127 0" result="hardAlpha"/>
<feOffset/>
<feGaussianBlur stdDeviation="12.9538"/>
<feComposite in2="hardAlpha" operator="out"/>
<feColorMatrix type="matrix" values="0 0 0 0 0.466667 0 0 0 0 0.376819 0 0 0 0 0.348833 0 0 0 0.15 0"/>
<feBlend mode="normal" in2="BackgroundImageFix" result="effect1_dropShadow_1942_6952"/>
<feBlend mode="normal" in="SourceGraphic" in2="effect1_dropShadow_1942_6952" result="shape"/>
</filter>
<filter id="filter1_d_1942_6952" x="-16.9184" y="-6.44138" width="158.037" height="95.2353" filterUnits="userSpaceOnUse" color-interpolation-filters="sRGB">
<feFlood flood-opacity="0" result="BackgroundImageFix"/>
<feColorMatrix in="SourceAlpha" type="matrix" values="0 0 0 0 0 0 0 0 0 0 0 0 0 0 0 0 0 0 127 0" result="hardAlpha"/>
<feOffset/>
<feGaussianBlur stdDeviation="12.9538"/>
<feComposite in2="hardAlpha" operator="out"/>
<feColorMatrix type="matrix" values="0 0 0 0 0.466667 0 0 0 0 0.376819 0 0 0 0 0.348833 0 0 0 0.15 0"/>
<feBlend mode="normal" in2="BackgroundImageFix" result="effect1_dropShadow_1942_6952"/>
<feBlend mode="normal" in="SourceGraphic" in2="effect1_dropShadow_1942_6952" result="shape"/>
</filter>
</defs>
</svg>
