<svg width="16" height="16" viewBox="0 0 16 16" fill="none" xmlns="http://www.w3.org/2000/svg">
<path fill-rule="evenodd" clip-rule="evenodd" d="M14.2107 1.78933C13.4485 1.02895 12.4159 0.601913 11.3393 0.601913C10.2628 0.601913 9.23013 1.02895 8.468 1.78933L7.09934 3.15733C6.97001 3.29653 6.89969 3.48045 6.90318 3.67042C6.90667 3.8604 6.98368 4.04161 7.11804 4.17597C7.25239 4.31032 7.43361 4.38734 7.62358 4.39083C7.81355 4.39432 7.99748 4.324 8.13667 4.19467L9.50534 2.82667C9.99213 2.34099 10.6517 2.06824 11.3393 2.06824C12.027 2.06824 12.6865 2.34099 13.1733 2.82667C13.415 3.06692 13.6066 3.35273 13.7371 3.66754C13.8675 3.98234 13.9342 4.3199 13.9333 4.66067C13.9343 5.00144 13.8676 5.33901 13.7371 5.65382C13.6067 5.96863 13.415 6.25443 13.1733 6.49467L10.7727 8.89534C9.79334 9.87533 8.08467 9.87533 7.10467 8.89534C6.94245 8.73362 6.80234 8.55115 6.688 8.35267C6.59111 8.18399 6.43118 8.06071 6.2434 8.00995C6.05561 7.95919 5.85535 7.98511 5.68667 8.082C5.51799 8.17889 5.39472 8.33883 5.34396 8.52661C5.2932 8.7144 5.31911 8.91466 5.416 9.08333C5.594 9.392 5.81267 9.678 6.06734 9.93267C6.44359 10.3108 6.89108 10.6107 7.38394 10.8148C7.87679 11.0189 8.40522 11.1234 8.93867 11.122C9.47214 11.1234 10.0006 11.019 10.4935 10.8149C10.9863 10.6108 11.4338 10.3109 11.81 9.93267L14.2107 7.53267C14.589 7.15625 14.8889 6.70855 15.0931 6.21546C15.2972 5.72236 15.4015 5.19368 15.4 4.66C15.4014 4.12654 15.2971 3.59808 15.0929 3.10522C14.8888 2.61236 14.5889 2.16488 14.2107 1.78867" fill="#9E9E9E"/>
<path fill-rule="evenodd" clip-rule="evenodd" d="M7.86332 11.8053L6.49465 13.174C6.00769 13.6593 5.34819 13.9319 4.66066 13.9319C3.97312 13.9319 3.31362 13.6593 2.82665 13.174C2.58514 12.9336 2.39364 12.6478 2.26319 12.333C2.13275 12.0182 2.06595 11.6807 2.06666 11.34C2.06666 10.6473 2.33665 9.996 2.82665 9.50667L5.22732 7.10533C5.5093 6.82395 5.85223 6.61122 6.22958 6.48359C6.60694 6.35597 7.0086 6.31687 7.40348 6.36934C7.79837 6.4218 8.17589 6.56441 8.50683 6.78614C8.83777 7.00786 9.11326 7.30276 9.31199 7.648C9.35996 7.73152 9.42392 7.80477 9.50021 7.86358C9.57649 7.92238 9.66362 7.96558 9.7566 7.99072C9.84958 8.01585 9.9466 8.02242 10.0421 8.01006C10.1376 7.9977 10.2298 7.96664 10.3133 7.91867C10.3968 7.87069 10.4701 7.80673 10.5289 7.73045C10.5877 7.65416 10.6309 7.56704 10.656 7.47406C10.6812 7.38107 10.6877 7.28405 10.6754 7.18853C10.663 7.09301 10.632 7.00085 10.584 6.91733C10.2727 6.37711 9.84139 5.9157 9.32334 5.56878C8.80528 5.22187 8.21439 4.99874 7.59634 4.91664C6.97828 4.83454 6.34963 4.89568 5.75898 5.09532C5.16832 5.29496 4.63149 5.62777 4.18999 6.068L1.78932 8.46867C1.41116 8.84492 1.11134 9.29241 0.907192 9.78526C0.703049 10.2781 0.598635 10.8065 0.599989 11.34C0.599989 12.4247 1.02266 13.4447 1.78932 14.2113C2.16601 14.5888 2.61362 14.888 3.10641 15.0918C3.59919 15.2955 4.1274 15.3998 4.66066 15.3987C5.70065 15.3987 6.73999 15.0027 7.53199 14.212L8.90065 12.8433C9.02999 12.7041 9.1003 12.5202 9.09681 12.3302C9.09333 12.1403 9.01631 11.9591 8.88196 11.8247C8.7476 11.6903 8.56638 11.6133 8.37641 11.6098C8.18644 11.6064 8.00252 11.6767 7.86332 11.806" fill="#9E9E9E"/>
</svg>
