<svg width="32" height="32" viewBox="0 0 32 32" fill="none" xmlns="http://www.w3.org/2000/svg">
<mask id="mask0_2011_1623" style="mask-type:luminance" maskUnits="userSpaceOnUse" x="0" y="0" width="32" height="32">
<rect width="32" height="32" fill="white"/>
</mask>
<g mask="url(#mask0_2011_1623)">
<path fill-rule="evenodd" clip-rule="evenodd" d="M22.0888 17.2175C21.8449 17.1218 21.6227 16.9783 21.4352 16.7953C21.2477 16.6124 21.0987 16.3938 20.997 16.1524C20.8953 15.911 20.8429 15.6517 20.843 15.3898C20.8431 15.1278 20.8956 14.8685 20.9975 14.6272C21.0993 14.3859 21.2485 14.1674 21.4361 13.9846C21.6237 13.8018 21.8461 13.6584 22.09 13.5629C22.3339 13.4674 22.5945 13.4216 22.8563 13.4284C23.368 13.4416 23.8543 13.6542 24.2115 14.0209C24.5687 14.3875 24.7685 14.8792 24.7683 15.391C24.7681 15.9029 24.568 16.3945 24.2106 16.7609C23.8532 17.1273 23.3667 17.3396 22.855 17.3524C22.5932 17.359 22.3326 17.3131 22.0888 17.2175ZM15.8175 17.2174C15.5735 17.1216 15.3511 16.978 15.1634 16.795C14.9758 16.6119 14.8267 16.3932 14.7249 16.1517C14.6232 15.9101 14.5708 15.6506 14.5709 15.3885C14.571 15.1264 14.6235 14.8669 14.7254 14.6254C14.8274 14.3839 14.9766 14.1653 15.1644 13.9824C15.3521 13.7995 15.5746 13.656 15.8187 13.5604C16.0627 13.4648 16.3235 13.4191 16.5855 13.4258C17.0975 13.4391 17.5841 13.6518 17.9416 14.0187C18.299 14.3856 18.4989 14.8776 18.4987 15.3898C18.4986 15.902 18.2983 16.3938 17.9407 16.7605C17.583 17.1271 17.0963 17.3396 16.5842 17.3524C16.3222 17.359 16.0615 17.3131 15.8175 17.2174ZM9.54587 17.2175C9.30201 17.1218 9.07978 16.9783 8.89226 16.7953C8.70475 16.6124 8.55575 16.3938 8.45404 16.1524C8.35233 15.911 8.29998 15.6517 8.30007 15.3898C8.30015 15.1278 8.35267 14.8685 8.45454 14.6272C8.5564 14.3859 8.70555 14.1674 8.89318 13.9846C9.08081 13.8018 9.30314 13.6584 9.54705 13.5629C9.79097 13.4674 10.0515 13.4216 10.3134 13.4284C10.8251 13.4416 11.3114 13.6542 11.6686 14.0209C12.0257 14.3875 12.2256 14.8792 12.2254 15.391C12.2252 15.9029 12.0251 16.3945 11.6677 16.7609C11.3103 17.1273 10.8238 17.3396 10.3121 17.3524C10.0503 17.359 9.78972 17.3131 9.54587 17.2175ZM3 15.2724C3 18.1692 4.22507 22.1111 7.63739 24.6556L7.23542 28.8592C7.22032 29.0141 7.24767 29.1701 7.31452 29.3107C7.38138 29.4512 7.48522 29.5709 7.61491 29.657C7.74461 29.743 7.89527 29.7921 8.05075 29.799C8.20623 29.806 8.36066 29.7704 8.4975 29.6963L12.8758 27.3406C13.4207 27.3967 15.021 27.5448 16.5 27.5448C23.9436 27.5448 30 22.0396 30 15.2724C30 8.50515 23.9436 3 16.5 3C9.05643 3 3 8.50515 3 15.2724Z" fill="#9E9E9E"/>
</g>
</svg>
