<svg width="16" height="16" viewBox="0 0 16 16" fill="none" xmlns="http://www.w3.org/2000/svg">
<mask id="mask0_208_215" style="mask-type:luminance" maskUnits="userSpaceOnUse" x="0" y="0" width="16" height="16">
<rect y="16" width="16" height="16" transform="rotate(-90 0 16)" fill="white"/>
</mask>
<g mask="url(#mask0_208_215)">
<path fill-rule="evenodd" clip-rule="evenodd" d="M5.1189 13.1411C4.95097 12.9724 4.85669 12.7441 4.85669 12.5061C4.85669 12.2681 4.95097 12.0398 5.1189 11.8711L8.9889 8.00111L5.1189 4.14111C4.95097 3.97244 4.85669 3.74412 4.85669 3.50611C4.85669 3.2681 4.95097 3.03978 5.1189 2.87111C5.28757 2.70318 5.51589 2.6089 5.7539 2.6089C5.99191 2.6089 6.22023 2.70318 6.3889 2.87111L10.8889 7.37111C11.0568 7.53978 11.1511 7.7681 11.1511 8.00611C11.1511 8.24412 11.0568 8.47245 10.8889 8.64111L6.3889 13.1411C6.2189 13.3111 5.9889 13.4011 5.7589 13.4011C5.5289 13.4011 5.2989 13.3111 5.1189 13.1411Z" fill="#9E9E9E"/>
</g>
</svg>
