<svg width="24" height="24" viewBox="0 0 24 24" fill="none" xmlns="http://www.w3.org/2000/svg">
<mask id="mask0_112_856" style="mask-type:luminance" maskUnits="userSpaceOnUse" x="0" y="0" width="24" height="24">
<rect width="24" height="24" fill="white"/>
</mask>
<g mask="url(#mask0_112_856)">
<path fill-rule="evenodd" clip-rule="evenodd" d="M13.318 10.8V3.80001C13.318 3.48175 13.1916 3.17652 12.9665 2.95148C12.7415 2.72643 12.4362 2.60001 12.118 2.60001C11.7997 2.60001 11.4945 2.72643 11.2695 2.95148C11.0444 3.17652 10.918 3.48175 10.918 3.80001V10.8H3.91799C3.59973 10.8 3.2945 10.9264 3.06946 11.1515C2.84442 11.3765 2.71799 11.6817 2.71799 12C2.71799 12.3183 2.84442 12.6235 3.06946 12.8485C3.2945 13.0736 3.59973 13.2 3.91799 13.2H10.918V20.2C10.918 20.5183 11.0444 20.8235 11.2695 21.0485C11.4945 21.2736 11.7997 21.4 12.118 21.4C12.4362 21.4 12.7415 21.2736 12.9665 21.0485C13.1916 20.8235 13.318 20.5183 13.318 20.2V13.2H20.318C20.6362 13.2 20.9415 13.0736 21.1665 12.8485C21.3916 12.6235 21.518 12.3183 21.518 12C21.518 11.6817 21.3916 11.3765 21.1665 11.1515C20.9415 10.9264 20.6362 10.8 20.318 10.8H13.318Z" fill="#9E9E9E"/>
</g>
</svg>
