<svg width="32" height="32" viewBox="0 0 32 32" fill="none" xmlns="http://www.w3.org/2000/svg">
<mask id="mask0_1182_3573" style="mask-type:luminance" maskUnits="userSpaceOnUse" x="0" y="0" width="32" height="32">
<rect width="32" height="32" fill="white"/>
</mask>
<g mask="url(#mask0_1182_3573)">
<path d="M28.5167 29.1763C28.9677 29.1763 29.3377 28.8097 29.2912 28.3611C29.1948 27.4302 28.9335 26.5156 28.5149 25.6493C27.9745 24.5311 27.1825 23.5151 26.184 22.6593C25.1855 21.8034 24.0002 21.1246 22.6956 20.6614C21.3911 20.1982 19.9928 19.9598 18.5808 19.9598C17.1687 19.9598 15.7705 20.1982 14.466 20.6614C13.1614 21.1246 11.9761 21.8034 10.9776 22.6593C9.97913 23.5151 9.1871 24.5311 8.64674 25.6493C8.22808 26.5156 7.96683 27.4302 7.87039 28.3611C7.82391 28.8097 8.19388 29.1763 8.64491 29.1763H28.5167Z" fill="#9E9E9E"/>
<path d="M15.3077 14.1131L12.0143 15.0273C11.6637 15.1247 11.3058 14.9046 11.2533 14.5446C11.0785 13.3459 10.9218 11.4605 10.9836 10.0044C11.0498 8.44251 11.3374 6.62462 12.2182 5.38972C12.3401 5.21872 12.5604 5.15162 12.7546 5.23153C13.9892 5.73957 15.5393 7.18456 16.6181 8.49326C17.4355 9.48483 18.3773 11.0043 18.9889 12.3845C19.1382 12.7215 18.9437 13.1037 18.5886 13.2023L15.3077 14.1131Z" fill="#9E9E9E"/>
<path d="M9.00047 6.04316C9.52311 5.63461 9.96277 5.31223 10.4298 5.04729C10.8925 4.78484 11.3484 5.39645 11.1382 5.8851C10.6362 7.05244 10.4884 8.33447 10.2843 9.65634C9.97683 11.6474 10.0726 13.5815 10.2711 14.8968C10.3202 15.2222 10.126 15.5397 9.80894 15.6277L6.04811 16.6715C5.71431 16.7642 5.36663 16.569 5.29461 16.2301C5.05945 15.1236 5.00911 13.9843 5.14704 12.8586C5.31043 11.5252 5.73483 10.2369 6.396 9.06754C7.05718 7.89814 7.94218 6.87046 9.00047 6.04316Z" fill="#9E9E9E"/>
<path d="M16.4392 4.05144C15.7784 3.99221 15.2341 3.96028 14.698 3.99148C14.167 4.02238 14.1163 4.78353 14.5582 5.07971C15.6137 5.78731 16.434 6.78362 17.3232 7.7828C18.6626 9.28777 19.6325 10.9639 20.1801 12.1762C20.3155 12.4761 20.651 12.6373 20.965 12.539L24.6901 11.3729C25.0206 11.2694 25.2066 10.9167 25.0831 10.5931C24.6797 9.53617 24.1032 8.5521 23.3761 7.68175C22.5148 6.65073 21.4589 5.79947 20.2686 5.17658C19.0784 4.55369 17.7771 4.17137 16.4392 4.05144Z" fill="#9E9E9E"/>
<path d="M15.8445 16.094L17.4763 22.0176" stroke="#9E9E9E" stroke-width="1.79209" stroke-linecap="round"/>
</g>
</svg>
